<?xml version="1.0" encoding="iso-8859-1"?>
<!-- Uploaded to: SVG Repo, www.svgrepo.com, Generator: SVG Repo Mixer Tools -->
<svg height="800px" width="800px" version="1.1" id="Layer_1" xmlns="http://www.w3.org/2000/svg" xmlns:xlink="http://www.w3.org/1999/xlink" 
	 viewBox="0 0 448 448" xml:space="preserve">
<g transform="translate(0 -1020.36)">
	<g shape-rendering="auto" image-rendering="auto" color-rendering="auto" color-interpolation="sRGB">
		<path style="fill:#5A3392;" d="M63.953,1020.36v339.094h16.063v16H63.953v22.75h16.063v16H63.953v54.156h248.031
			c39.67,0,72.063-32.268,72.063-71.938v-229.75h-21v-16h21v-22.75h-21v-16h21v-91.562L63.953,1020.36L63.953,1020.36z"/>
		<path style="fill:#29A3EC;" d="M80.031,1036.43h287.953v360c0,31.023-24.961,55.986-55.984,55.984H80.031L80.031,1036.43z"/>
		<path style="fill:#3CDEF6;" d="M87.618,1047.391h272.779v341.031c0,29.389-23.646,53.035-53.034,53.033H87.618L87.618,1047.391z"
			/>
		<path style="fill:#5A3392;" d="M159.992,1276.43c-35.252,0-64.016,28.766-64.016,64.016c0,35.252,28.764,64.016,64.016,64.016
			c35.251,0,64.016-28.766,64.016-64.016C224.007,1305.194,195.243,1276.43,159.992,1276.43L159.992,1276.43z"/>
		<path style="fill:#EE746C;" d="M159.992,1292.376c26.604,0,47.952,21.465,47.953,48.07c-0.001,26.605-21.349,47.953-47.953,47.953
			s-47.953-21.35-47.953-47.953C112.039,1313.84,133.388,1292.376,159.992,1292.376z"/>
		<path style="fill:#FB9761;" d="M159.992,1299.448c22.686,0,40.888,18.305,40.889,40.99c-0.001,22.686-18.203,40.889-40.889,40.889
			s-40.889-18.203-40.889-40.889S137.306,1299.448,159.992,1299.448L159.992,1299.448z"/>
		<g>
			<path style="fill:#FFFFFF;" d="M159.047,1308.438c-4.07,0.469-7.129,3.936-7.087,8.031v47.834c0,4.436,3.596,8.031,8.032,8.031
				s8.032-3.596,8.032-8.031v-47.834c0.05-4.418-3.492-8.041-7.91-8.09C159.757,1308.376,159.4,1308.395,159.047,1308.438z"/>
			<path style="fill:#FFFFFF;" d="M135.306,1332.417c-4.387,0.527-7.516,4.512-6.988,8.898c0.478,3.973,3.816,6.982,7.817,7.045
				h47.716c4.403,0.377,8.277-2.887,8.654-7.289s-2.887-8.277-7.29-8.654c-0.454-0.039-0.91-0.039-1.364,0h-47.716
				C135.859,1332.403,135.582,1332.403,135.306,1332.417z"/>
		</g>
		<path style="fill:#5A3392;" d="M98.643,1054.376v7.863v180.182h250.73v-188.047H98.643L98.643,1054.376z"/>
		<path style="fill:#FFFFFF;" d="M114.371,1070.104h219.273v156.59H114.371V1070.104z"/>
		<path style="fill:#5A3392;" d="M327.944,1276.43c-13.16,0-23.976,10.818-23.976,23.977c0,13.16,10.816,23.979,23.976,23.979
			c13.159,0,24.095-10.818,24.095-23.979C352.039,1287.249,341.104,1276.43,327.944,1276.43z"/>
		<path style="fill:#EBFEFF;" d="M327.944,1292.376c4.511,0,8.031,3.52,8.031,8.031s-3.52,8.031-8.031,8.031
			c-4.511,0-7.913-3.518-7.913-8.031C320.031,1295.897,323.429,1292.376,327.944,1292.376z"/>
		<path style="fill:#5A3392;" d="M279.991,1324.383c-13.16,0-23.976,10.816-23.976,23.977s10.816,24.094,23.976,24.094
			c13.159,0,23.977-10.934,23.977-24.094S293.151,1324.383,279.991,1324.383z"/>
		<path style="fill:#FFFFFF;" d="M279.991,1340.446c4.511,0,8.031,3.404,8.031,7.914c0,4.512-3.52,8.031-8.031,8.031
			c-4.511,0-8.031-3.52-8.031-8.031S275.48,1340.446,279.991,1340.446z"/>
		<path style="fill:#EBFEFF;" d="M126.274,1078.604h195.467v139.59H126.274L126.274,1078.604L126.274,1078.604z"/>
		<g>
			<path style="fill:#5A3392;" d="M199.913,1108.36c-4.396,0.049-7.93,3.635-7.913,8.031v64.016c0.038,4.418,3.65,7.971,8.069,7.932
				c1.541-0.012,3.046-0.471,4.333-1.318l48.071-32.006c3.653-2.486,4.599-7.463,2.113-11.115c-0.565-0.832-1.282-1.549-2.113-2.113
				l-48.071-32.008c-1.321-0.908-2.884-1.398-4.487-1.408L199.913,1108.36z"/>
			<path style="fill:#FB9761;" d="M207.945,1131.393l25.748,17.008l-25.748,17.125L207.945,1131.393L207.945,1131.393z"/>
		</g>
	</g>
	<g>
		<path style="fill:#FFFFFF;" d="M272.002,1428.417c0,4.418-3.581,8-7.999,8c0,0,0,0-0.001,0c-4.418,0-8-3.582-8-8l0,0
			c0-4.418,3.581-8,7.999-8c0,0,0,0,0.001,0C268.42,1420.417,272.002,1423.999,272.002,1428.417L272.002,1428.417z"/>
		
			<path shape-rendering="auto" image-rendering="auto" color-rendering="auto" color-interpolation="sRGB" style="fill:#FFFFFF;" d="
			M329.948,1382.743c-4.397,0.111-7.879,3.752-7.796,8.15v15.828c0,4.51-3.52,8.031-8.031,8.031h-15.827
			c-4.436-0.021-8.049,3.557-8.07,7.992s3.557,8.049,7.992,8.07c0.026,0,0.052,0,0.078,0h15.827
			c13.16,0,23.976-10.934,23.976-24.094v-15.828c0.083-4.418-3.43-8.066-7.848-8.15
			C330.148,1382.741,330.048,1382.741,329.948,1382.743z"/>
	</g>
</g>
</svg>