<?xml version="1.0" encoding="utf-8"?>
<!-- Svg Vector Icons : http://www.onlinewebfonts.com/icon -->
<!DOCTYPE svg PUBLIC "-//W3C//DTD SVG 1.1//EN" "http://www.w3.org/Graphics/SVG/1.1/DTD/svg11.dtd">
<svg version="1.1" xmlns="http://www.w3.org/2000/svg" xmlns:xlink="http://www.w3.org/1999/xlink" x="0px" y="0px" viewBox="0 0 256 256" enable-background="new 0 0 256 256" xml:space="preserve">
<metadata> Svg Vector Icons : http://www.onlinewebfonts.com/icon </metadata>
<g><g><g><path fill="#000000" d="M44.6,128v118l69.5-0.1l69.5-0.1l3.2-1.1c11.4-3.8,19.3-11.4,23.1-22.4l1.3-3.7l0.1-104.3L211.4,10H128H44.6V128z M201.8,110.1c0,89.1,0,90.5-0.9,89.1c-2.5-4.1-8.8-2.2-8.8,2.6c0,2.1,1.7,4.3,3.5,4.8c1.8,0.5,4.3-0.6,5.3-2.2l0.9-1.4l-0.2,6.9c-0.1,3.8-0.4,7.3-0.6,7.7c-0.3,0.8-0.4,0.8-1.5-0.1c-2.2-1.7-5.9-0.8-7,1.6c-1.4,3,0,6.3,2.8,7.1l1.4,0.4l-2,2.2c-1.1,1.2-2.2,2.2-2.4,2.2c-0.2,0-0.7-0.7-1.1-1.6c-1.5-3.1-5.3-3.8-7.8-1.4c-1.7,1.7-1.9,3.5-0.8,5.7l1,1.8l-1,0.3c-0.6,0.1-4,0.4-7.7,0.5c-6.2,0.2-6.6,0.2-5.4-0.5c1.4-0.8,2.7-2.9,2.7-4.4c0-1.7-1.4-3.7-3-4.4c-3.3-1.4-6.7,0.9-6.7,4.5c0,1.5,0.3,2.2,1.6,3.4l1.6,1.6H110H54.3V128V19.7H128h73.8V110.1z"/><path fill="#000000" d="M63.9,78.9V128H128h64.1V78.9V29.8H128H63.9V78.9z M181.9,78.9v39.4H128H74.1V78.9V39.5H128h53.9V78.9z"/><path fill="#000000" d="M74,142.6l-0.1,5l-5,0.1l-4.9,0.1l0.1,14.6l0.1,14.6l5,0.1l4.9,0.1v4.8v4.8h14.8h14.7v-4.8v-4.8h4.8h4.8v-14.8v-14.8h-4.8h-4.8l-0.1-5l-0.1-4.9l-14.6-0.1l-14.6-0.1L74,142.6z M93.4,152.7v4.8h5.1h5.1v4.8v4.8l-4.9,0.1l-5,0.1l-0.1,4.9l-0.1,5h-4.8h-4.8v-5.1v-5.1h-4.8h-4.8v-4.8v-4.8h4.8h4.8v-4.8v-4.8h4.8h4.8V152.7z"/><path fill="#000000" d="M173.6,138.3c-8.5,2.3-13.1,11.1-10.2,19.5c1.1,3.1,5.5,7.6,8.6,8.6c5.3,1.8,11.5,0.5,15.2-3.1c8.5-8.3,4.9-22-6.5-24.9C177.6,137.5,176.4,137.5,173.6,138.3z M180.6,149.2c2.3,2.3,1.7,6.1-1.2,7.7c-4.2,2.3-8.8-2.4-6.5-6.6C174.4,147.5,178.4,147,180.6,149.2z"/><path fill="#000000" d="M142.8,158.3c-3,1.1-5.4,3-7.3,5.8c-2,2.9-2.6,5.3-2.4,9.3c0.4,5.3,3.3,9.7,8.1,12.1c3.5,1.8,8.8,1.8,12.3,0.2c6.2-2.8,9.8-9.5,8.6-16C160.5,160.9,151.1,155.4,142.8,158.3z M149.4,167.8c4.3,1.8,4,7.6-0.4,9c-2.9,1-6.3-1.5-6.3-4.6c0-1.7,1.4-3.7,2.9-4.4C147.5,167,147.5,167,149.4,167.8z"/><path fill="#000000" d="M104.9,208.2c-1.5,1.5-1.8,3.8-0.7,6c1.1,2,2.5,2.4,9.1,2.4c4.8,0,6.3-0.1,7.3-0.8c2.7-1.6,3.1-5.3,1-7.6l-1.3-1.3h-7h-7L104.9,208.2z"/><path fill="#000000" d="M134.4,208.2c-1.5,1.5-1.8,3.8-0.7,6c1.1,2,2.5,2.4,9.1,2.4c4.8,0,6.3-0.1,7.3-0.8c2.7-1.6,3.1-5.3,1-7.6l-1.3-1.3h-7h-7L134.4,208.2z"/><path fill="#000000" d="M183.9,208c-1.8,1.5-2.2,3.3-1.3,5.4c0.7,1.7,2.7,3.1,4.4,3.1c1.7,0,3.7-1.4,4.4-3.1C193.4,208.8,187.7,204.7,183.9,208z"/><path fill="#000000" d="M173.8,218.1c-1.8,1.8-2,3.5-0.9,5.8c1.4,2.7,5.5,3.2,7.7,1c2.2-2.2,1.7-6.3-1-7.7C177.4,216,175.6,216.3,173.8,218.1z"/></g></g></g>
</svg>